 http://www.torrentday.com - Your Key To The Scene.

 
http://www.torrentday.com :  Clean RAR Scene Releases!


Enjoy =)

...................................NFO:....................................

.SPRiNTER proudly presents...



Cargo.200.2007.DVDRip.XviD-SPRiNTER 
http://www.imdb.com/title/tt0847880/
Audio: Russian
Subtitles: English

Date: 2010.03

Director: Aleksey Balabanov
Plot: A young woman is taken hostage by a police officer and subsequently abused by the lawman gone mad.
Genre: Drama | Thriller

Cast

	Agniya Kuznetsova	 ...	Angelika
	Aleksei Poluyan	 ...	Captain Zhurov
	Leonid Gromov	 ...	Artem, Professor of Scientific Atheism
	Aleksey Serebryakov	 ...	Aleksey
	Leonid Bichevin	 ...	Valera
	Natalya Akimova	 ...	Antonina, Aleksey's Wife
	Yuri Stepanov	 ...	Mikhail, Colonel
	Mikhail Skryabin	 ...	Sunka

Release notes:

Enjoy!

Format                           : AVI
Format/Info                      : Audio Video Interleave
File size                        : 702 MiB
Duration                         : 1h 25mn
Overall bit rate                 : 1 143 Kbps
Writing application              : VirtualDubMod 1.5.10.2 (build 2540/release)
Writing library                  : VirtualDubMod build 2540/release

Video
ID                               : 0
Format                           : MPEG-4 Visual
Format profile                   : AdvancedSimple@L5
Format settings, BVOP            : Yes
Format settings, QPel            : No
Format settings, GMC             : No warppoints
Format settings, Matrix          : Default (H.263)
Codec ID                         : XVID
Codec ID/Hint                    : XviD
Duration                         : 1h 25mn
Bit rate                         : 1 006 Kbps
Width                            : 576 pixels
Height                           : 304 pixels
Display aspect ratio             : 1.895
Frame rate                       : 25.000 fps
Resolution                       : 24 bits
Colorimetry                      : 4:2:0
Scan type                        : Progressive
Bits/(Pixel*Frame)               : 0.230
Stream size                      : 618 MiB (88%)
Writing library                  : XviD 1.2.1 (UTC 2008-12-04)

Audio
ID                               : 1
Format                           : MPEG Audio
Format version                   : Version 1
Format profile                   : Layer 3
Codec ID                         : 55
Codec ID/Hint                    : MP3
Duration                         : 1h 25mn
Bit rate mode                    : Variable
Bit rate                         : 124 Kbps
Minimum bit rate                 : 32.0 Kbps
Channel(s)                       : 2 channels
Sampling rate                    : 48.0 KHz
Resolution                       : 16 bits
Stream size                      : 76.2 MiB (11%)
Alignment                        : Aligned on interleaves
Interleave, duration             : 24 ms (0.60 video frame)
Interleave, preload duration     : 168 ms
Writing library                  : LAME3.95 
Encoding settings                : -m j -V 4 -q 2 -lowpass 18 --vbr-old -b 32